<?xml version="1.0" encoding="UTF-8"?>
<!-- Generator: visioncortex VTracer 0.6.2 -->
<svg version="1.1" xmlns="http://www.w3.org/2000/svg" width="1280" height="1280">
<path d="M0 0 C6.00559542 1.40556489 10.69445005 3.90817047 16 7 C18.7868984 8.5918037 21.58080411 10.1710526 24.375 11.75 C25.42868774 12.35146851 25.42868774 12.35146851 26.50366211 12.96508789 C29.30963206 14.55478705 31.93238942 15.97746314 35 17 C35 17.66 35 18.32 35 19 C35.71929688 19.103125 36.43859375 19.20625 37.1796875 19.3125 C40.30692035 20.07481715 42.41647119 21.27714375 45.125 23 C47.80872417 24.69670099 49.97770778 25.99256926 53 27 C53 27.66 53 28.32 53 29 C54.09634766 29.16435547 54.09634766 29.16435547 55.21484375 29.33203125 C58.16301038 30.03909506 60.02508136 31.0517022 62.5625 32.6875 C67.28979375 35.62798927 72.14376494 38.11897971 77.13671875 40.57421875 C84.158993 44.0709856 90.90386641 48.08681795 97.70654297 51.98779297 C102.15695708 54.5341331 106.6471406 56.99727609 111.15625 59.4375 C115.06796036 61.58679141 118.93462893 63.81304047 122.80419922 66.03686523 C127.26069992 68.5924223 131.76070457 71.05632879 136.28125 73.49609375 C139.26602326 75.14715367 142.19332905 76.88154417 145.125 78.625 C149.94830834 81.46483298 154.8168163 83.89269552 160 86 C160 86.66 160 87.32 160 88 C160.73089844 88.10957031 161.46179688 88.21914063 162.21484375 88.33203125 C165.16301038 89.03909506 167.02508136 90.0517022 169.5625 91.6875 C173.3716744 94.06182844 177.21609736 96.15565374 181.25 98.125 C185.41095291 100.16323328 189.14446439 102.42964293 193 105 C196.01161236 106.55744562 199.04730959 108.05512962 202.09765625 109.53515625 C204.82302216 110.9106774 207.40370661 112.3965292 210 114 C211.66550649 115.02272508 213.3321737 116.04356237 215 117.0625 C216.2375 117.82240234 216.2375 117.82240234 217.5 118.59765625 C219.94534297 119.96934082 222.37607624 121.02071417 225 122 C225 122.66 225 123.32 225 124 C225.73702148 124.11843262 226.47404297 124.23686523 227.23339844 124.35888672 C229.9753043 124.99427719 231.84981757 125.84478254 234.265625 127.2578125 C235.43448242 127.93118652 235.43448242 127.93118652 236.62695312 128.61816406 C237.41005859 129.07416992 238.19316406 129.53017578 239 130 C240.45127624 130.81320403 241.90436738 131.62317875 243.359375 132.4296875 C244.07641602 132.82921631 244.79345703 133.22874512 245.53222656 133.64038086 C260.63657104 142.0638925 260.63657104 142.0638925 276 150 C276 150.66 276 151.32 276 152 C276.73089844 152.10957031 277.46179688 152.21914063 278.21484375 152.33203125 C281.16301038 153.03909506 283.02508136 154.0517022 285.5625 155.6875 C289.19409505 157.94787332 292.83502475 159.95375857 296.6875 161.8125 C301.41587908 164.12522831 305.89446936 166.68824086 310.375 169.4375 C317.38516153 173.73662964 324.58459918 177.44654907 332 181 C332 181.66 332 182.32 332 183 C332.68835937 183.08894531 333.37671875 183.17789063 334.0859375 183.26953125 C337.64823433 184.16249306 340.50746004 185.81706218 343.625 187.6875 C344.87318745 188.41884066 346.12189125 189.14930075 347.37109375 189.87890625 C347.98581543 190.24000488 348.60053711 190.60110352 349.23388672 190.97314453 C351.6937066 192.40333563 354.1865032 193.76834418 356.6875 195.125 C357.98880859 195.84042969 357.98880859 195.84042969 359.31640625 196.5703125 C361.22001278 197.58446096 363.14757711 198.55420285 365.08984375 199.4921875 C366.09144531 199.98976563 367.09304688 200.48734375 368.125 201 C369.03507812 201.433125 369.94515625 201.86625 370.8828125 202.3125 C373.81539382 204.64990799 373.58372033 206.32187178 374 210 C374.08964931 212.2786148 374.13061757 214.55946712 374.1328125 216.83984375 C374.13410156 218.15146484 374.13539063 219.46308594 374.13671875 220.81445312 C374.13357666 221.83357788 374.13357666 221.83357788 374.13037109 222.87329102 C374.12509593 224.90063247 374.13028983 226.9277442 374.13671875 228.95507812 C374.14027348 232.29312605 374.10538356 235.62946606 374.03967285 238.96697998 C374.01266724 240.350872 373.99165979 241.73489116 373.97595215 243.11895752 C373.94517287 245.18645763 373.87977232 247.2500927 373.8046875 249.31640625 C373.77101074 250.5288501 373.73733398 251.74129395 373.70263672 252.99047852 C373 256 373 256 370.64526367 257.80541992 C369.77232666 258.19963135 368.89938965 258.59384277 368 259 C366.96746094 259.59296875 365.93492187 260.1859375 364.87109375 260.796875 C363.10760238 261.79999865 361.34410833 262.80311758 359.58056641 263.80615234 C355.65631712 266.04263973 351.76040595 268.32139963 347.875 270.625 C344.02111742 272.88329363 340.13474939 274.96975262 336.125 276.9375 C329.89082701 279.9979122 323.89733073 283.43461798 317.89013672 286.91162109 C305.84052421 293.85003139 293.64844632 300.52978595 281.375 307.0625 C274.06372742 310.95882356 266.82090204 314.88157042 259.74682617 319.19726562 C253.20601671 323.17970471 246.60252678 326.77032157 239.71484375 330.1328125 C233.11872865 333.39793398 226.7422866 337.08875674 220.32763672 340.69287109 C216.4941227 342.84565419 212.65418359 344.98683669 208.8125 347.125 C208.06838867 347.53951416 207.32427734 347.95402832 206.55761719 348.38110352 C201.73387391 351.06019656 196.8791058 353.67334466 192 356.25 C187.02468843 358.87822149 182.16772322 361.6466217 177.3671875 364.58203125 C174.00702256 366.59480332 170.56366303 368.44085607 167.1171875 370.30078125 C163.39115529 372.33188904 159.69530837 374.41368057 156 376.5 C148.50001875 380.72773812 140.98510827 384.91947949 133.35546875 388.91015625 C124.23624317 393.68647011 115.25548409 398.66508958 106.31274414 403.76416016 C97.18592403 408.94410526 87.94310281 413.89386731 78.66674805 418.79931641 C72.70877527 421.96132323 66.86639297 425.23173693 61.10717773 428.74243164 C58.61457659 430.23002155 56.06367224 431.51509763 53.4375 432.75 C48.3693879 435.23207541 43.52967546 437.98635996 38.6875 440.875 C32.03879458 444.84029475 25.31201929 448.58391817 18.453125 452.171875 C14.36491118 454.33622349 10.35855615 456.63112599 6.3671875 458.96875 C3.72518989 460.11971925 1.85137301 460.2029447 -1 460 C-2.28484157 457.43031686 -2.1410512 455.57312805 -2.16113281 452.69580078 C-2.17074036 451.5877005 -2.1803479 450.47960022 -2.19024658 449.33792114 C-2.19449646 448.13586029 -2.19874634 446.93379944 -2.203125 445.6953125 C-2.20882507 444.46465057 -2.21452515 443.23398865 -2.22039795 441.96603394 C-2.22985799 439.35838687 -2.2363859 436.75072779 -2.24023438 434.14306641 C-2.24462833 431.46779811 -2.25855273 428.79285066 -2.28125 426.11767578 C-2.31164484 422.26845452 -2.3222751 418.41964024 -2.328125 414.5703125 C-2.3466452 412.77329391 -2.3466452 412.77329391 -2.36553955 410.93997192 C-2.36253845 409.82556732 -2.35953735 408.71116272 -2.35644531 407.56298828 C-2.36191376 406.09310959 -2.36191376 406.09310959 -2.36749268 404.59353638 C-1.93633461 401.55068898 -1.17266013 400.1558175 1 398 C1.99 398 2.98 398 4 398 C4 397.34 4 396.68 4 396 C5.65 395.67 7.3 395.34 9 395 C9 394.34 9 393.68 9 393 C9.63421875 392.76925781 10.2684375 392.53851562 10.921875 392.30078125 C15.16466998 390.50782347 19.18439695 388.34755045 23.25 386.1875 C24.46236328 385.54844727 24.46236328 385.54844727 25.69921875 384.89648438 C29.7580923 382.75015204 33.79288289 380.56828427 37.80078125 378.328125 C40.80822304 376.64858038 43.83084298 375.05304019 46.9375 373.5625 C51.35415256 371.38508342 55.53490127 368.91967552 59.73828125 366.359375 C66.99137931 362 66.99137931 362 71 362 C71 361.34 71 360.68 71 360 C71.73605469 359.72414063 72.47210937 359.44828125 73.23046875 359.1640625 C75.8015881 358.08339456 77.96471382 356.86790844 80.3125 355.375 C84.62841965 352.73820294 89.03064348 350.42066852 93.5625 348.1875 C103.92556503 343.07457659 114.33914516 337.93552606 124.1875 331.875 C128.98085907 328.93142715 133.96882051 326.4739065 139.01171875 323.98828125 C149.40383067 318.84113246 159.71365129 313.49976235 169.5859375 307.41015625 C173.03879936 305.39319325 176.61472407 303.6476345 180.20092773 301.8815918 C192.13994271 295.99074546 203.8648856 289.70032388 215.43310547 283.11376953 C220.16721138 280.43122879 224.98663068 277.98480021 229.875 275.59375 C234.35359978 273.30966411 238.70211151 270.80943858 243.06933594 268.32080078 C247.99993968 265.52506113 253.01144239 262.96369742 258.109375 260.484375 C262.33909037 258.312359 266.36830587 255.82774555 270.40625 253.3203125 C273 252 273 252 277 252 C277 251.34 277 250.68 277 250 C277.89460938 249.56429687 278.78921875 249.12859375 279.7109375 248.6796875 C286.25959632 245.46304152 292.64194811 242.16757182 298.81640625 238.26171875 C301.14548065 236.91593873 303.49829524 235.98082711 306 235 C307.28552641 234.31869587 308.55846615 233.61266697 309.8125 232.875 C310.864375 232.25625 311.91625 231.6375 313 231 C313 230.01 313 229.02 313 228 C312.26394531 227.88785156 311.52789063 227.77570313 310.76953125 227.66015625 C307.89298724 226.97449202 306.15087649 226.04328894 303.6875 224.4375 C299.28146151 221.69275471 294.7818567 219.33956394 290.125 217.0625 C285.30710017 214.69922402 280.60949196 212.25690323 276 209.5 C271.52517856 206.83080826 266.98141392 204.42841365 262.3125 202.125 C250.23550057 196.16603033 238.39009163 189.82864023 226.68334961 183.1730957 C221.7518574 180.38401845 216.73536225 177.81604234 211.6484375 175.3203125 C208.54807654 173.77470483 205.53629986 172.10369253 202.51953125 170.40234375 C199.32558065 168.62462551 196.10177201 166.90460367 192.875 165.1875 C192.23691406 164.84750977 191.59882812 164.50751953 190.94140625 164.15722656 C187.64810616 162.40397069 184.35150067 160.65721604 181.05078125 158.91796875 C175.64634936 156.06327134 170.26322609 153.21784055 165.0625 150 C160.30791238 147.08918811 155.3738736 144.63670088 150.37963867 142.171875 C140.0221073 137.05287127 129.80766509 131.6710963 119.8125 125.875 C114.16248666 122.61140782 108.41009395 119.65678542 102.55859375 116.7734375 C92.7886533 111.90455389 83.2605128 106.60379044 73.77001953 101.21533203 C68.96862916 98.5046618 64.08623698 96.02038021 59.1328125 93.59765625 C54.61415866 91.29325548 50.22399884 88.77441241 45.81640625 86.26586914 C40.63179274 83.32561442 35.37798653 80.57264259 30 78 C30 78.66 30 79.32 30 80 C30.56589844 80.2578125 31.13179687 80.515625 31.71484375 80.78125 C34.24101463 82.12854114 36.32644367 83.71418175 38.5625 85.5 C41.00468505 87.44386398 43.39977272 89.26651515 46 91 C46 91.66 46 92.32 46 93 C46.54140625 93.2165625 47.0828125 93.433125 47.640625 93.65625 C50.81645344 95.46499997 53.20728081 97.91723799 55.75 100.5 C56.25660156 100.99886719 56.76320313 101.49773437 57.28515625 102.01171875 C61 105.74658861 61 105.74658861 61 108 C61.66 108 62.32 108 63 108 C66 111.46153846 66 111.46153846 66 114 C66.66 114 67.32 114 68 114 C71.58092749 117.0057526 73.6810284 120.69358996 74.32373047 125.34082031 C74.50146915 128.02653742 74.56394136 130.68349245 74.5625 133.375 C74.56459473 134.26735352 74.56668945 135.15970703 74.56884766 136.07910156 C74.405785 142.53049776 74.405785 142.53049776 72.46850586 144.77197266 C71.98389893 145.17722168 71.49929199 145.5824707 71 146 C70.61521484 145.16082031 70.61521484 145.16082031 70.22265625 144.3046875 C67.25190547 138.08311516 63.7761388 132.36639376 59.94750977 126.64794922 C57 122.20144157 57 122.20144157 57 120 C56.34 120 55.68 120 55 120 C53.43567213 118.30725716 51.94671428 116.54430148 50.5 114.75 C49.30890625 113.28820312 49.30890625 113.28820312 48.09375 111.796875 C46 109 46 109 44.96875 106.765625 C43.6935924 104.44154744 42.39984111 104.0510253 40 103 C38.56042092 102.03327536 37.14341184 101.03215692 35.75 100 C35.04359375 99.484375 34.3371875 98.96875 33.609375 98.4375 C33.07828125 97.963125 32.5471875 97.48875 32 97 C32 96.34 32 95.68 32 95 C31.48566406 94.75378906 30.97132813 94.50757813 30.44140625 94.25390625 C26.56071291 92.26078215 22.81281244 90.03094843 19.04492188 87.83398438 C16.38240695 86.29671589 13.92578814 84.97526271 11 84 C11 83.34 11 82.68 11 82 C10.01 81.896875 9.02 81.79375 8 81.6875 C5.18844629 81.29142795 3.21187384 80.69037901 0.5 79.625 C-8.63034182 76.06749637 -18.19824592 74.73374936 -27.9375 74.6875 C-28.62255615 74.68210205 -29.3076123 74.6767041 -30.01342773 74.67114258 C-34.98540072 74.74045727 -39.23704064 75.72091896 -44 77 C-45.27875 77.12375 -46.5575 77.2475 -47.875 77.375 C-52.95475877 77.94052002 -57.33794456 80.00700651 -62 82 C-63.74938614 82.66827583 -65.49937616 83.33497323 -67.25 84 C-71.24379179 85.58743775 -74.5449833 87.45419822 -78 90 C-74.39007621 89.34414811 -74.39007621 89.34414811 -71 88 C-65.69156818 87.68814696 -60.38211164 87.64297796 -55.06542969 87.5949707 C-53.29667356 87.57362365 -51.52801603 87.53980728 -49.75976562 87.49243164 C-34.27734508 87.08200144 -20.71070787 89.4669691 -8 99 C-8 99.66 -8 100.32 -8 101 C-6.9790625 101.309375 -6.9790625 101.309375 -5.9375 101.625 C0.92950109 104.83934094 6.06285398 110.59672955 10 117 C10 117.66 10 118.32 10 119 C10.66 119 11.32 119 12 119 C19.21859527 129.02317091 24.42973319 140.20456156 28 152 C28.350625 153.11375 28.70125 154.2275 29.0625 155.375 C30.09710538 159.37547415 30.83841259 163.3781628 31.53515625 167.44921875 C31.93803935 169.89473163 31.93803935 169.89473163 32.51898193 171.81988525 C33.08937334 174.40506614 33.1422089 176.78455379 33.16113281 179.43261719 C33.17074036 180.52185486 33.1803479 181.61109253 33.19024658 182.7333374 C33.1966214 184.49728851 33.1966214 184.49728851 33.203125 186.296875 C33.20882507 187.51844299 33.21452515 188.74001099 33.22039795 189.99859619 C33.22985014 192.59101496 33.2363828 195.18344576 33.24023438 197.77587891 C33.24986056 201.69325641 33.28084943 205.61009115 33.3125 209.52734375 C33.4442988 240.50946649 33.4442988 240.50946649 26.96484375 254.69140625 C25.88994383 257.11900243 25.88994383 257.11900243 25.12109375 260.27734375 C23.85953943 264.4664074 22.12249669 268.12381684 20.125 272 C19.78597656 272.67289063 19.44695312 273.34578125 19.09765625 274.0390625 C16.86317592 278.44005418 14.47856506 282.73197765 12 287 C11.34 287 10.68 287 10 287 C9.773125 287.71542969 9.54625 288.43085937 9.3125 289.16796875 C7.71964776 292.60492671 5.69865027 294.66484167 3 297.3125 C2.113125 298.19550781 1.22625 299.07851563 0.3125 299.98828125 C-2 302 -2 302 -4 302 C-4 302.66 -4 303.32 -4 304 C-5.32 304.33 -6.64 304.66 -8 305 C-8 305.66 -8 306.32 -8 307 C-10.90548882 309.04169485 -12.40142046 310 -16 310 C-16 310.66 -16 311.32 -16 312 C-17.17369141 312.41572266 -17.17369141 312.41572266 -18.37109375 312.83984375 C-19.38300781 313.20207031 -20.39492188 313.56429688 -21.4375 313.9375 C-22.44683594 314.29714844 -23.45617187 314.65679688 -24.49609375 315.02734375 C-26.90313745 315.76877639 -26.90313745 315.76877639 -28 317 C-54.04313655 320.82003181 -76.11303391 319.94714049 -98 304 C-100.13995612 302.40505143 -102.05565676 300.83632418 -104 299 C-104 298.34 -104 297.68 -104 297 C-104.99 296.67 -105.98 296.34 -107 296 C-107 295.34 -107 294.68 -107 294 C-107.66 294 -108.32 294 -109 294 C-130.55566494 267.88276281 -135.8806463 236.64194727 -135.4598999 203.81994629 C-135.42975777 200.95044824 -135.42627125 198.08117101 -135.42332363 195.21153545 C-135.41888024 192.41721084 -135.40355953 189.62303506 -135.3844471 186.82877541 C-135.37144463 184.87689138 -135.36307957 182.92497819 -135.35484314 180.97306824 C-135.27004356 174.64563054 -134.88542385 169.05305407 -133 163 C-135.85369052 165.85369052 -136.19026904 169.24524589 -137.0625 173.0625 C-138.88006757 180.88006757 -138.88006757 180.88006757 -140 182 C-140.37180356 183.97230168 -140.69800668 185.95330952 -141 187.9375 C-141.89193825 193.7838765 -141.89193825 193.7838765 -143 196 C-143.2064743 198.28842353 -143.36647108 200.58116393 -143.5 202.875 C-143.89537803 209.63878837 -143.89537803 209.63878837 -144.50927734 211.75830078 C-145.20559465 214.93918911 -145.12997649 217.9958778 -145.1328125 221.25 C-145.13376923 221.94512695 -145.13472595 222.64025391 -145.13571167 223.35644531 C-145.13639044 224.82226655 -145.1345573 226.28809083 -145.13037109 227.75390625 C-145.12501852 229.99225645 -145.13032629 232.23040601 -145.13671875 234.46875 C-145.13605791 235.89583377 -145.13477664 237.32291742 -145.1328125 238.75 C-145.13112061 240.69132812 -145.13112061 240.69132812 -145.12939453 242.671875 C-145.02453151 245.3690311 -144.74031432 247.44258293 -144 250 C-143.73506565 253.52825266 -143.55653341 257.05619715 -143.37890625 260.58984375 C-143.02048654 263.81562111 -142.25955676 266.0462159 -141 269 C-140.65625 271.24609375 -140.65625 271.24609375 -140.5 273.4375 C-140.05746645 278.11903915 -138.7827079 282.09214948 -137 286.4375 C-136 289 -136 289 -135.1875 292.0625 C-133.65767699 297.57225319 -131.26631592 302.76243851 -129 308 C-128.6184375 308.91136719 -128.236875 309.82273437 -127.84375 310.76171875 C-124.28799581 318.99040665 -119.85236134 327.15431679 -114.2578125 334.19140625 C-113 336 -113 336 -113 339 C-112.34 339 -111.68 339 -111 339 C-109.54597658 340.6376272 -108.16151322 342.33734196 -106.8125 344.0625 C-102.03163436 350.02137093 -97.36914469 355.45219455 -91.0625 359.8125 C-89.5465625 360.8953125 -89.5465625 360.8953125 -88 362 C-88 362.66 -88 363.32 -88 364 C-87.4225 364.28875 -86.845 364.5775 -86.25 364.875 C-83.125 366.4375 -83.125 366.4375 -80 368 C-80 368.66 -80 369.32 -80 370 C-79.17435547 370.16242188 -79.17435547 370.16242188 -78.33203125 370.328125 C-75.54293241 371.13168447 -73.24559257 372.37719237 -70.6875 373.75 C-56.71405958 380.83896489 -42.24408342 384.40352627 -26.5625 384.3125 C-25.5526001 384.30758545 -24.5427002 384.3026709 -23.50219727 384.29760742 C-16.27611272 384.18390723 -9.8389349 383.44040978 -3 381 C-1.80761719 380.60167969 -0.61523438 380.20335937 0.61328125 379.79296875 C9.34993273 376.79002831 16.99826125 373.08290095 24.828125 368.20703125 C27 367 27 367 29 367 C29 366.34 29 365.68 29 365 C30.6875 363.51953125 30.6875 363.51953125 33 361.8125 C41.00475699 356.31859238 41.00475699 356.31859238 47 349 C47.66 349 48.32 349 49 349 C49.23460937 348.46246094 49.46921875 347.92492187 49.7109375 347.37109375 C51.36095452 344.33606244 53.47484448 341.74938607 55.625 339.0625 C61.65356227 331.37938341 67.60856925 323.22469165 71 314 C71.66 314 72.32 314 73 314 C76.11824385 320.23648769 75.19390514 330.31762072 74 337 C71.8110985 342.23494566 67.95973458 346.01714288 64 350 C63.11870518 351.04355312 62.24748658 352.09570184 61.38671875 353.15625 C59.49920885 355.40519797 57.76458208 357.23053856 55.5 359.0625 C53.45894642 360.75827899 51.56854378 362.43145622 49.6875 364.3125 C38.76047904 375.23952096 38.76047904 375.23952096 33 379 C32.01 379 31.02 379 30 379 C30 379.66 30 380.32 30 381 C23.55235603 385.66898357 16.70725813 389.41954679 9.234375 392.14453125 C7.17108825 392.93449593 5.36134736 393.86065623 3.4375 394.9375 C-16.71742223 405.32282653 -40.99872347 405.75526104 -63.0625 404.5625 C-63.8138623 404.52334473 -64.56522461 404.48418945 -65.33935547 404.44384766 C-70.75994687 404.12002656 -70.75994687 404.12002656 -73 403 C-74.49714833 402.8445269 -75.99811346 402.72480892 -77.5 402.625 C-85.45214802 401.88127393 -92.45809755 399.3856367 -99.65625 396.02734375 C-102.21073482 394.9076279 -104.79604868 394.01908675 -107.4375 393.125 C-112.17700687 391.44131504 -116.27521037 389.25296997 -120.515625 386.5625 C-122.40564073 385.37381086 -124.34227292 384.25888723 -126.296875 383.1796875 C-130.44910504 380.82265341 -134.20445798 378.01164786 -138 375.125 C-139.00933594 374.36896484 -139.00933594 374.36896484 -140.0390625 373.59765625 C-143.41635813 371.04838484 -146.74141059 368.44183375 -150 365.7421875 C-150.86625 365.02458252 -150.86625 365.02458252 -151.75 364.29248047 C-153 363 -153 363 -153 361 C-153.66 361 -154.32 361 -155 361 C-156.69140625 359.35546875 -156.69140625 359.35546875 -158.5625 357.1875 C-159.18253906 356.47980469 -159.80257812 355.77210938 -160.44140625 355.04296875 C-162 353 -162 353 -163 350 C-163.66 350 -164.32 350 -165 350 C-166.5078125 348.3203125 -166.5078125 348.3203125 -168.125 346.125 C-168.66382813 345.40570312 -169.20265625 344.68640625 -169.7578125 343.9453125 C-171 342 -171 342 -171 340 C-171.66 340 -172.32 340 -173 340 C-174.17333984 338.47460937 -174.17333984 338.47460937 -175.4609375 336.34375 C-175.93273437 335.56773437 -176.40453125 334.79171875 -176.890625 333.9921875 C-177.38046875 333.16976563 -177.8703125 332.34734375 -178.375 331.5 C-178.85710938 330.70851563 -179.33921875 329.91703125 -179.8359375 329.1015625 C-182.80719015 324.17638827 -185.51390285 319.1856051 -188 314 C-188.50402344 312.96617187 -189.00804687 311.93234375 -189.52734375 310.8671875 C-195.26357388 298.69557454 -199.32291275 286.5315951 -202.203125 273.421875 C-202.82265017 270.16078641 -202.82265017 270.16078641 -204 268 C-204.37928518 265.62354131 -204.71039878 263.26266362 -205 260.875 C-205.08685059 260.16504883 -205.17370117 259.45509766 -205.26318359 258.72363281 C-208.62074854 230.13708545 -208.31743885 199.40945747 -198.6953125 172.01171875 C-197.66863739 169.04128234 -196.83767633 166.02852213 -196 163 C-195.34 163 -194.68 163 -194 163 C-194.0825 162.34 -194.165 161.68 -194.25 161 C-193.89908189 156.78898268 -191.95653359 153.66134942 -190 150 C-189.15366197 148.29930177 -188.30763346 146.59844122 -187.46728516 144.89477539 C-184.47541587 138.83595753 -181.36487392 132.86139329 -178 127 C-177.34 127 -176.68 127 -176 127 C-175.7525 126.29875 -175.505 125.5975 -175.25 124.875 C-173.82819762 121.60485452 -172.12753712 118.858878 -170 116 C-169.34 116 -168.68 116 -168 116 C-167.7525 115.278125 -167.505 114.55625 -167.25 113.8125 C-165.87730408 110.72393418 -164.27646704 108.48988582 -162 106 C-161.34 106 -160.68 106 -160 106 C-160 105.34 -160 104.68 -160 104 C-159.34 104 -158.68 104 -158 104 C-157.505 102.515 -157.505 102.515 -157 101 C-156.34 101 -155.68 101 -155 101 C-155 100.34 -155 99.68 -155 99 C-154.34 99 -153.68 99 -153 99 C-152.505 97.515 -152.505 97.515 -152 96 C-151.34 96 -150.68 96 -150 96 C-149.505 94.515 -149.505 94.515 -149 93 C-148.34 93 -147.68 93 -147 93 C-147 92.34 -147 91.68 -147 91 C-140.62114081 85.03995479 -130.73789264 76.45285626 -122 75 C-122 74.34 -122 73.68 -122 73 C-121.28714844 72.72800781 -120.57429687 72.45601562 -119.83984375 72.17578125 C-116.98052327 70.99193604 -114.30108336 69.62706046 -111.5625 68.1875 C-101.19604129 62.97247169 -90.32307183 59.46091888 -79 57 C-78.36408936 56.83008545 -77.72817871 56.6601709 -77.07299805 56.48510742 C-69.06303064 54.5480339 -61.0252276 54.66282749 -52.83422852 54.68432617 C-50.33499896 54.68747168 -47.8369734 54.66401455 -45.33789062 54.63867188 C-31.074996 54.58308531 -18.14960391 56.69353923 -4.78515625 61.85546875 C-0.51945489 63.51963098 -0.51945489 63.51963098 4 64 C3.195625 63.566875 2.39125 63.13375 1.5625 62.6875 C-1 61 -1 61 -2 58 C-2.0979238 56.22143648 -2.13820102 54.43944634 -2.14526367 52.65820312 C-2.15164352 51.56697144 -2.15802338 50.47573975 -2.16459656 49.35144043 C-2.16626579 47.58419617 -2.16626579 47.58419617 -2.16796875 45.78125 C-2.17129715 44.57182739 -2.17462555 43.36240479 -2.17805481 42.11633301 C-2.18312064 39.55753968 -2.18546324 36.99873974 -2.18530273 34.43994141 C-2.18749117 30.51584056 -2.20565617 26.5920199 -2.22460938 22.66796875 C-2.22754291 20.1848968 -2.22952797 17.70182351 -2.23046875 15.21875 C-2.23765427 14.04058716 -2.24483978 12.86242432 -2.25224304 11.64855957 C-2.24916641 10.55732788 -2.24608978 9.46609619 -2.24291992 8.34179688 C-2.24434494 7.38043823 -2.24576996 6.41907959 -2.24723816 5.42858887 C-2 3 -2 3 0 0 Z M12 69 C16 70 16 70 16 70 Z M-72 151 C-72 151.66 -72 152.32 -72 153 C-74 154 -76 155 -78 156 C-78 156.66 -78 157.32 -78 158 C-78.66 158 -79.32 158 -80 158 C-81.792613 160.03307273 -81.792613 160.03307273 -83.5625 162.625 C-84.18253906 163.48351562 -84.80257812 164.34203125 -85.44140625 165.2265625 C-87.12115332 168.21558611 -87.63741125 170.61252703 -88 174 C-88.66 174 -89.32 174 -90 174 C-90.309375 175.258125 -90.61875 176.51625 -90.9375 177.8125 C-91.53978048 180.26177394 -92.20088641 182.60265923 -93 185 C-95.28326809 205.95767932 -95.39716218 227.4265795 -81.85546875 244.7421875 C-74.22021683 253.5090696 -67.11080743 259.22307003 -55.2890625 260.35546875 C-44.87523242 260.86579042 -35.13569843 259.09022317 -27 252 C-27 251.34 -27 250.68 -27 250 C-26.0409375 249.5978125 -26.0409375 249.5978125 -25.0625 249.1875 C-22.66868314 248.11332248 -22.66868314 248.11332248 -22 245 C-21.34 245 -20.68 245 -20 245 C-17.95830515 242.09451118 -17 240.59857954 -17 237 C-16.34 237 -15.68 237 -15 237 C-6.60183971 220.20367943 -6.26581172 196.95240759 -10.94140625 178.98828125 C-13.21042106 172.58312875 -16.23460162 166.64809757 -20 161 C-20.66 161 -21.32 161 -22 161 C-22.39445312 160.10474609 -22.39445312 160.10474609 -22.796875 159.19140625 C-26.35707373 152.70675857 -33.40242787 149.42403897 -40 146.8125 C-51.46746447 143.88892664 -61.48331121 146.52481328 -72 151 Z M-131 153 C-130 156 -130 156 -130 156 Z " fill="#FFFFFF" transform="translate(741,459)"/>
<path d="M0 0 C3.47932058 3.47932058 3.43522039 4.29158854 3.73046875 9.01171875 C3.81143799 10.2339917 3.89240723 11.45626465 3.97583008 12.71557617 C4.04568115 14.02631104 4.11553223 15.3370459 4.1875 16.6875 C4.26634382 18.03687555 4.34536549 19.38624072 4.42456055 20.7355957 C4.90924041 29.38043764 5.22451206 38.02908414 5.3125 46.6875 C5.33014404 47.68934326 5.34778809 48.69118652 5.3659668 49.72338867 C5.36508057 50.6435376 5.36419434 51.56368652 5.36328125 52.51171875 C5.36775269 53.70994263 5.36775269 53.70994263 5.37231445 54.93237305 C4.88933392 57.61457772 4.13055645 58.3201106 2 60 C0.23541795 61.16325871 -1.56063203 62.27931192 -3.375 63.36328125 C-4.44363281 64.00330078 -5.51226563 64.64332031 -6.61328125 65.30273438 C-8.28970703 66.29756836 -8.28970703 66.29756836 -10 67.3125 C-11.08667969 67.96412109 -12.17335938 68.61574219 -13.29296875 69.28710938 C-19.34051134 72.89612673 -25.43879168 76.37274304 -31.63720703 79.71557617 C-34.44605114 81.2424752 -37.19517186 82.85701926 -39.9375 84.5 C-43.91089763 86.84091644 -47.91468227 88.98503945 -52.0625 91 C-57.05614139 93.4448036 -61.65708056 96.25592102 -66.30859375 99.29296875 C-68.86745972 100.91593599 -71.45439908 102.38254023 -74.125 103.8125 C-83.93475064 109.06672541 -93.45431596 114.85295304 -102.97827148 120.60473633 C-108.69162137 124.0545142 -114.44337406 127.38776096 -120.328125 130.5390625 C-123.23773242 132.12998819 -126.08555247 133.80804149 -128.9375 135.5 C-132.97320839 137.87640935 -137.04540349 140.06236775 -141.25 142.125 C-145.20573376 144.06718371 -148.92431322 146.12847719 -152.6171875 148.5234375 C-155.9755669 150.60453162 -159.42514979 152.51293446 -162.875 154.4375 C-169.77207871 158.29151648 -176.64520929 162.17648218 -183.27734375 166.4765625 C-183.99019531 166.93804688 -184.70304688 167.39953125 -185.4375 167.875 C-186.05496094 168.28492188 -186.67242187 168.69484375 -187.30859375 169.1171875 C-189 170 -189 170 -192 170 C-192 170.66 -192 171.32 -192 172 C-192.65484375 172.35191406 -193.3096875 172.70382812 -193.984375 173.06640625 C-199.02335168 175.79229335 -204.00980395 178.5772318 -208.9375 181.5 C-212.97320839 183.87640935 -217.04540349 186.06236775 -221.25 188.125 C-225.29019559 190.1084639 -229.10906546 192.21602676 -232.88671875 194.65625 C-239.15647284 198.64293282 -245.64603933 202.29323392 -252.1875 205.8125 C-259.24959234 209.63012383 -266.13828106 213.74116087 -273.03955078 217.83984375 C-274.78064788 218.87019162 -276.52852702 219.88905982 -278.27734375 220.90625 C-279.62505859 221.69515625 -279.62505859 221.69515625 -281 222.5 C-281.763125 222.9434375 -282.52625 223.386875 -283.3125 223.84375 C-285.15496246 224.90570596 -285.15496246 224.90570596 -286 227 C-285.16251221 227.25305908 -285.16251221 227.25305908 -284.30810547 227.51123047 C-278.89129807 229.2208996 -274.07570163 231.36214043 -269.125 234.125 C-262.01314116 238.00266211 -254.78861274 241.54028849 -247.42041016 244.90478516 C-242.98981803 246.95325674 -239.05188744 249.25404463 -235 252 C-232.80570433 252.98656823 -232.80570433 252.98656823 -230.75 253.625 C-227 255 -227 255 -225 257 C-223.36517742 257.71523488 -221.72766585 258.42486551 -220.078125 259.10546875 C-217.92099102 260.03400951 -215.84314569 261.06013043 -213.75 262.125 C-208.8336916 264.61304058 -203.85995698 266.96637524 -198.875 269.3125 C-187.67494838 274.59763407 -176.57871287 280.039973 -165.6875 285.9375 C-158.33125807 289.9192009 -150.79236518 293.4815357 -143.21484375 297.01953125 C-139.78047494 298.62326226 -136.38068417 300.28531699 -133 302 C-133 302.66 -133 303.32 -133 304 C-132.29278809 304.11174561 -131.58557617 304.22349121 -130.85693359 304.33862305 C-127.7288169 305.06277859 -125.17887369 306.18528123 -122.2890625 307.58203125 C-121.20882812 308.10216797 -120.12859375 308.62230469 -119.015625 309.15820312 C-117.89671875 309.70412109 -116.7778125 310.25003906 -115.625 310.8125 C-113.95824219 311.61397461 -113.95824219 311.61397461 -112.2578125 312.43164062 C-103.27625449 316.77807316 -103.27625449 316.77807316 -99.1484375 319.19921875 C-95.84769848 321.08711042 -92.50505463 322.53114119 -89 324 C-86.52959657 325.1894535 -84.07339766 326.39229657 -81.625 327.625 C-80.94526123 327.96547363 -80.26552246 328.30594727 -79.56518555 328.65673828 C-73.55056807 331.68635389 -67.59904236 334.83183945 -61.67236328 338.02978516 C-58.17542441 339.90497968 -54.73211792 341.62310213 -51 343 C-51 343.66 -51 344.32 -51 345 C-49.93507324 345.17305664 -49.93507324 345.17305664 -48.84863281 345.34960938 C-45.79901181 346.04588897 -43.26141765 347.09716621 -40.421875 348.40625 C-39.35163086 348.89843018 -38.28138672 349.39061035 -37.17871094 349.89770508 C-35.48149902 350.69084106 -35.48149902 350.69084106 -33.75 351.5 C-32.58500977 352.04100342 -31.42001953 352.58200684 -30.21972656 353.1394043 C-22.27938625 356.85656803 -14.48853314 360.77511429 -6.7890625 364.96484375 C-1.86168922 367.64243187 3.18802533 370.06478247 8.2421875 372.4921875 C12.35002732 374.73811692 12.35002732 374.73811692 14 377 C14.79919126 380.29006112 15.14692339 383.42409495 15.23706055 386.80273438 C15.26346115 387.7271936 15.28986176 388.65165283 15.31706238 389.60412598 C15.35154228 391.08398987 15.35154228 391.08398987 15.38671875 392.59375 C15.41224319 393.61803101 15.43776764 394.64231201 15.46406555 395.69763184 C15.51597293 397.85939979 15.5654116 400.02122824 15.61254883 402.18310547 C15.68723611 405.48832198 15.77790092 408.7928606 15.86914062 412.09765625 C15.91765065 414.20049836 15.96520869 416.3033627 16.01171875 418.40625 C16.05530769 419.88611389 16.05530769 419.88611389 16.09977722 421.39587402 C16.2547837 429.85291677 16.2547837 429.85291677 14 434 C3.12752283 428.95163793 -7.58994499 423.71971112 -18.15234375 418.05078125 C-21.40605962 416.30626627 -24.68955708 414.63495344 -28 413 C-32.7979097 410.62726324 -37.52748882 408.1430722 -42.25 405.625 C-47.75442291 402.69163342 -53.28507601 399.82944232 -58.875 397.0625 C-64.7984539 394.13022832 -70.65935435 391.09383351 -76.5 388 C-84.2945364 383.87412657 -92.14507849 379.88067237 -100.04833984 375.96777344 C-103.36996878 374.32067097 -106.68456972 372.65953392 -110 371 C-111.31246739 370.34368479 -112.6249675 369.687435 -113.9375 369.03125 C-120.625 365.6875 -127.3125 362.34375 -134 359 C-134 358.34 -134 357.68 -134 357 C-134.64324219 356.92910156 -135.28648437 356.85820313 -135.94921875 356.78515625 C-140.27679367 355.67140137 -143.9043686 353.56895829 -147.8125 351.4375 C-149.52399537 350.51944457 -151.23624693 349.60279762 -152.94921875 348.6875 C-153.80177246 348.23117187 -154.65432617 347.77484375 -155.53271484 347.3046875 C-159.0333415 345.45357441 -162.57384597 343.6891763 -166.125 341.9375 C-171.63201029 339.21254463 -177.07915938 336.39251175 -182.5 333.5 C-189.98159832 329.5097001 -197.53636049 325.68562195 -205.13525391 321.92431641 C-208.09421978 320.45761769 -211.04682338 318.97831936 -214 317.5 C-214.969375 317.0153125 -215.93875 316.530625 -216.9375 316.03125 C-217.618125 315.6909375 -218.29875 315.350625 -219 315 C-219 314.34 -219 313.68 -219 313 C-219.68449219 312.90847656 -220.36898437 312.81695313 -221.07421875 312.72265625 C-224.65615901 311.83793135 -227.6198161 310.22338788 -230.8125 308.4375 C-232.16834824 307.69752578 -233.52514845 306.95929362 -234.8828125 306.22265625 C-235.5727832 305.8477002 -236.26275391 305.47274414 -236.97363281 305.08642578 C-240.01489875 303.45586754 -243.09660264 301.90857636 -246.1875 300.375 C-246.82026855 300.06030762 -247.45303711 299.74561523 -248.10498047 299.42138672 C-249.54301442 298.70695596 -250.98135087 297.9931339 -252.41992188 297.27978516 C-257.92899691 294.54714214 -263.43456296 291.80747867 -268.9375 289.0625 C-269.54749847 288.75826111 -270.15749695 288.45402222 -270.78598022 288.14056396 C-278.75427958 284.16282488 -286.67931203 280.11715092 -294.53051758 275.91259766 C-298.36655558 273.85849561 -302.22419642 271.86731707 -306.125 269.9375 C-312.52938544 266.76597123 -318.822101 263.39818813 -325.11425781 260.01123047 C-326.99694287 259.00163939 -328.88443473 258.00161898 -330.7734375 257.00390625 C-331.95314008 256.37763258 -333.13282823 255.75133172 -334.3125 255.125 C-335.88451172 254.29355469 -335.88451172 254.29355469 -337.48828125 253.4453125 C-340 252 -340 252 -342 250 C-342.29193115 248.11599731 -342.29193115 248.11599731 -342.35058594 245.79736328 C-342.37691101 244.92951202 -342.40323608 244.06166077 -342.43035889 243.16751099 C-342.4481842 242.22793549 -342.46600952 241.28835999 -342.484375 240.3203125 C-342.5084845 239.35600311 -342.53259399 238.39169373 -342.55743408 237.39816284 C-342.60578686 235.35555713 -342.64916625 233.31282861 -342.68798828 231.27001953 C-342.74961932 228.14430701 -342.83270611 225.019678 -342.91796875 221.89453125 C-342.96223626 219.9114869 -343.00524647 217.928414 -343.046875 215.9453125 C-343.07279724 215.00978546 -343.09871948 214.07425842 -343.12542725 213.11038208 C-343.13914368 212.2362265 -343.15286011 211.36207092 -343.16699219 210.46142578 C-343.18316589 209.69468536 -343.1993396 208.92794495 -343.21600342 208.13796997 C-342.96625853 205.66603192 -342.29758865 204.10867908 -341 202 C-338.96875 200.5078125 -338.96875 200.5078125 -336.5 199.125 C-335.7059375 198.67382812 -334.911875 198.22265625 -334.09375 197.7578125 C-332.56234375 196.88769531 -332.56234375 196.88769531 -331 196 C-329.44722631 195.07364412 -327.89667093 194.14356544 -326.34765625 193.2109375 C-322.75271341 191.04701082 -319.14672046 188.90406101 -315.52734375 186.78125 C-314.60759766 186.24113281 -313.68785156 185.70101562 -312.74023438 185.14453125 C-310.8688382 184.04647161 -308.99643772 182.95012183 -307.12304688 181.85546875 C-301.95578747 178.81675761 -296.92377371 175.65311806 -291.95874023 172.29492188 C-289.56540675 170.71269069 -287.10291746 169.33163848 -284.5625 168 C-279.26621053 165.16744407 -274.12760607 162.12539798 -269 159 C-262.86639782 155.26142343 -256.68164222 151.68715238 -250.34765625 148.296875 C-247.84592951 146.95738435 -247.84592951 146.95738435 -245 145 C-244.01 145 -243.02 145 -242 145 C-242 144.34 -242 143.68 -242 143 C-241.10474609 142.52433594 -241.10474609 142.52433594 -240.19140625 142.0390625 C-227.62355625 135.2789411 -215.42377056 127.91704818 -203.3125 120.375 C-196.43473749 116.09201285 -189.52185595 111.93584884 -182.4609375 107.9609375 C-178.40593771 105.6634094 -174.38927391 103.3052217 -170.375 100.9375 C-169.30113037 100.30606079 -169.30113037 100.30606079 -168.20556641 99.66186523 C-164.91443539 97.7254837 -161.62934902 95.78051455 -158.359375 93.80859375 C-156.75835937 92.85146484 -156.75835937 92.85146484 -155.125 91.875 C-154.19945312 91.31554687 -153.27390625 90.75609375 -152.3203125 90.1796875 C-150 89 -150 89 -147 89 C-147 88.34 -147 87.68 -147 87 C-145.58671871 86.18162558 -144.16921654 85.37053781 -142.75 84.5625 C-141.96109375 84.11003906 -141.1721875 83.65757812 -140.359375 83.19140625 C-138.21166532 82.10688398 -136.34794939 81.46851284 -134 81 C-134 80.34 -134 79.68 -134 79 C-133.00033203 78.47212891 -133.00033203 78.47212891 -131.98046875 77.93359375 C-125.88407003 74.66797038 -120.05481434 71.17634335 -114.3125 67.3203125 C-112 66 -112 66 -109 66 C-109 65.34 -109 64.68 -109 64 C-108.36835938 63.6596875 -107.73671875 63.319375 -107.0859375 62.96875 C-101.52300467 59.95482674 -95.99525822 56.88521668 -90.5 53.75 C-89.90106934 53.40904297 -89.30213867 53.06808594 -88.68505859 52.71679688 C-86.06255925 51.2156678 -83.51573008 49.67715339 -81 48 C-80.01 48 -79.02 48 -78 48 C-78 47.34 -78 46.68 -78 46 C-76.35 45.67 -74.7 45.34 -73 45 C-73 44.34 -73 43.68 -73 43 C-71.85724609 42.45472656 -71.85724609 42.45472656 -70.69140625 41.8984375 C-65.06342411 39.15822148 -59.78270866 36.30670923 -54.640625 32.74609375 C-50.49263447 30.00326569 -46.18214722 27.5441516 -41.88354492 25.04638672 C-37.88998527 22.71903157 -33.92871323 20.35200409 -30.00390625 17.91015625 C-29.18849365 17.40379639 -28.37308105 16.89743652 -27.53295898 16.37573242 C-25.95218989 15.39053647 -24.37474945 14.3999753 -22.80102539 13.40356445 C-22.08551514 12.95843506 -21.37000488 12.51330566 -20.6328125 12.0546875 C-19.68752686 11.45889893 -19.68752686 11.45889893 -18.72314453 10.85107422 C-17 10 -17 10 -14 10 C-14 9.34 -14 8.68 -14 8 C-12.35 7.67 -10.7 7.34 -9 7 C-9 6.34 -9 5.68 -9 5 C-6.03 3.35 -3.06 1.7 0 0 Z " fill="#FFFFFF" transform="translate(569,476)"/>
</svg>
